<svg width="512" height="512" viewBox="0 0 512 512" fill="none" xmlns="http://www.w3.org/2000/svg">
  <rect width="512" height="512" rx="120" fill="url(#bg)"/>
  <path d="M116 166C144.615 139.856 176.481 126.784 211.6 126.784C246.719 126.784 274.259 137.039 294.219 157.548C314.18 178.058 324.16 204.862 324.16 237.962C324.16 277.69 310.047 310.973 281.821 337.809C253.596 364.614 219.044 378.016 178.166 378.016C150.034 378.016 124.645 371.667 102 358.969L128.785 304.293C145.229 313.713 162.934 318.423 181.9 318.423C201.831 318.423 218.557 311.621 232.079 298.019C245.631 284.385 252.407 267.701 252.407 247.965C252.407 228.944 245.912 213.311 232.923 201.068C219.965 188.794 202.729 182.658 181.213 182.658C157.673 182.658 136.94 191.398 119.014 208.879L116 166Z" fill="white"/>
  <path d="M86 344C115.171 334.744 143.143 330.116 169.917 330.116C204.911 330.116 239.034 337.964 272.286 353.658C305.568 369.352 340.473 377.2 377 377.2C399.735 377.2 419.401 374.498 436 369.095" stroke="#8CD7FF" stroke-width="26" stroke-linecap="round"/>
  <path d="M94 262C117.959 253.881 141.671 249.821 165.136 249.821C198.265 249.821 231.638 257.965 265.256 274.253C298.904 290.539 333.38 298.683 368.684 298.683C391.68 298.683 412.786 295.307 432 288.555" stroke="#BEEBFF" stroke-width="22" stroke-linecap="round" opacity="0.92"/>
  <defs>
    <linearGradient id="bg" x1="64" y1="48" x2="448" y2="464" gradientUnits="userSpaceOnUse">
      <stop stop-color="#2456F5"/>
      <stop offset="1" stop-color="#0D2F8D"/>
    </linearGradient>
  </defs>
</svg>
